<?xml version="1.0" encoding="UTF-8"?>
<svg version="1.1" xmlns="http://www.w3.org/2000/svg" width="256" height="256">
<path d="M0 0 C0.99 0.66 1.98 1.32 3 2 C3.825 1.35933594 4.65 0.71867187 5.5 0.05859375 C23.97517968 -13.92518735 44.51849969 -20.60426274 67.76953125 -17.49609375 C84.85661195 -14.19924797 98.66574304 -6.12232814 111 6 C111.62648437 6.61359375 112.25296875 7.2271875 112.8984375 7.859375 C126.64249196 22.41190325 131.77712759 40.65908012 131.52172852 60.25292969 C131.08784784 72.58261822 128.21638657 89.78361343 119 99 C117.0056827 99.09405142 115.00800457 99.11743249 113.01147461 99.11352539 C111.73022202 99.11344986 110.44896942 99.11337433 109.12889099 99.11329651 C107.72004152 99.10818909 106.31119244 99.10297309 104.90234375 99.09765625 C103.46887766 99.09579202 102.03541093 99.09436814 100.60194397 99.09336853 C96.82240043 99.08954372 93.0428951 99.07971377 89.2633667 99.06866455 C85.40930702 99.05844963 81.55524118 99.05387074 77.70117188 99.04882812 C70.13409713 99.03809146 62.56705391 99.02101549 55 99 C49.23632243 89.03980219 43.72379006 78.97044285 38.34643555 68.79736328 C32.97155447 56.3965594 32.97155447 56.3965594 23.9375 47.75 C20.9658583 47.72734511 20.9658583 47.72734511 19.04467773 49.57421875 C16.57589726 52.50315042 14.97149554 55.62535328 13.34765625 59.0625 C12.8423085 60.10684456 12.8423085 60.10684456 12.32675171 61.17228699 C11.23028492 63.44426656 10.14617817 65.72189652 9.0625 68 C8.30855196 69.56967098 7.55407134 71.13908625 6.79907227 72.70825195 C0.06269604 86.74135835 -6.51379577 100.84968451 -13 115 C-13.66 115 -14.32 115 -15 115 C-16.38525391 113.17089844 -16.38525391 113.17089844 -17.9765625 110.609375 C-18.56115234 109.67697998 -19.14574219 108.74458496 -19.74804688 107.78393555 C-20.36744141 106.78273682 -20.98683594 105.78153809 -21.625 104.75 C-22.89807603 102.73024087 -24.17151114 100.71070802 -25.4453125 98.69140625 C-27.48252182 95.44096125 -29.50204657 92.18176459 -31.4921875 88.90234375 C-32.15476562 87.84144531 -32.81734375 86.78054687 -33.5 85.6875 C-34.0465625 84.78386719 -34.593125 83.88023438 -35.15625 82.94921875 C-36.93815597 80.78249319 -36.93815597 80.78249319 -39.90625 79.89453125 C-43.14091854 79.70333208 -43.14091854 79.70333208 -45.609375 82.015625 C-48.09881456 85.12335673 -50.24556821 88.3193379 -52.25 91.75 C-55.92567568 97.92567568 -55.92567568 97.92567568 -57 99 C-58.71584698 99.14588432 -60.43760546 99.22286263 -62.15893555 99.2722168 C-63.26065598 99.30441818 -64.3623764 99.33661957 -65.4974823 99.36979675 C-70.55530262 99.48017765 -75.61298744 99.56285645 -80.67163086 99.62475586 C-83.34213451 99.66041239 -86.00638102 99.72777919 -88.67651367 99.80932617 C-92.51822661 99.92481807 -96.35604274 99.97498185 -100.19921875 100.01171875 C-101.39004562 100.06019455 -102.5808725 100.10867035 -103.80778503 100.15861511 C-107.15654748 100.15120611 -109.81583614 100.04465711 -113 99 C-115.87750736 96.00569431 -117.46409015 92.82909968 -119 89 C-119.2947522 88.29632294 -119.58950439 87.59264587 -119.89318848 86.86764526 C-120.61184836 85.00277831 -121.21535926 83.09475554 -121.8125 81.1875 C-122.40998047 79.32158203 -122.40998047 79.32158203 -123.01953125 77.41796875 C-127.20290835 62.83448283 -126.88192839 45.02998218 -121 31 C-120.73687012 30.3615918 -120.47374023 29.72318359 -120.20263672 29.06542969 C-115.79901315 18.64327135 -110.1133559 10.82066629 -102 3 C-101.28199219 2.26265625 -100.56398438 1.5253125 -99.82421875 0.765625 C-71.68438444 -26.57929873 -29.38528783 -21.70257594 0 0 Z " fill="#EC3F79" transform="translate(125,30)"/>
<path d="M0 0 C2.60724231 2.33931944 4.05561862 4.71861055 5.63671875 7.83203125 C6.37353882 9.26832886 6.37353882 9.26832886 7.12524414 10.73364258 C7.64078857 11.74966553 8.15633301 12.76568848 8.6875 13.8125 C13.99628421 24.13138913 13.99628421 24.13138913 19.5625 34.3125 C20.16191406 35.38113281 20.76132813 36.44976562 21.37890625 37.55078125 C22.92436767 40.22956789 22.92436767 40.22956789 26 42 C28.64711758 42.32873988 28.64711758 42.32873988 31.66479492 42.31884766 C32.82577194 42.33871735 33.98674896 42.35858704 35.1829071 42.37905884 C36.43610245 42.39061005 37.68929779 42.40216125 38.98046875 42.4140625 C40.26359451 42.43342865 41.54672028 42.4527948 42.86872864 42.4727478 C46.2766095 42.52407292 49.68452986 42.56369632 53.09259033 42.60089111 C56.57159193 42.64092857 60.05042918 42.69202204 63.52929688 42.7421875 C70.35274449 42.83895107 77.17629758 42.92335439 84 43 C79.22285732 48.74585275 74.10171714 54.040347 68.81347656 59.31591797 C67.45635811 60.6756649 67.45635811 60.6756649 66.07182312 62.06288147 C63.60956972 64.52966145 61.14420302 66.993307 58.67809391 69.45623159 C56.09238438 72.03939656 53.50912998 74.62501493 50.92547607 77.2102356 C46.5932261 81.54429953 42.25888344 85.87626224 37.92333984 90.20703125 C32.90899296 95.21591981 27.89828179 100.2284238 22.88941026 105.24278724 C18.58285203 109.55387819 14.27435484 113.86302407 9.96421981 118.17053902 C7.39220538 120.74099377 4.82087311 123.31212112 2.25128937 125.88500595 C-0.60664008 128.74635127 -3.46862453 131.60360632 -6.33105469 134.46044922 C-7.18405655 135.31547531 -8.03705841 136.1705014 -8.91590881 137.05143738 C-9.69250351 137.82521225 -10.46909821 138.59898712 -11.26922607 139.39620972 C-11.94540356 140.07201017 -12.62158104 140.74781063 -13.31824875 141.44408989 C-15.45150913 143.41772386 -16.75622367 143.95356641 -19.625 144.5 C-23.33403207 143.95051377 -24.08864399 143.3393331 -26.77197266 140.90161133 C-27.47541809 140.26357574 -28.17886353 139.62554016 -28.90362549 138.96817017 C-32.00208647 136.0591964 -35.03136513 133.09229196 -38.0234375 130.07421875 C-38.67499817 129.42119781 -39.32655884 128.76817688 -39.99786377 128.09536743 C-41.39791486 126.6915409 -42.79681075 125.28656147 -44.19464111 123.88052368 C-46.41298821 121.64929113 -48.63455062 119.42130408 -50.85693359 117.1940918 C-56.3731413 111.66458859 -61.88386801 106.12963343 -67.39477539 100.59484863 C-72.062248 95.90757635 -76.73181006 91.22240429 -81.40411377 86.53994751 C-83.58187097 84.35575645 -85.75656961 82.16855206 -87.93115234 79.98120117 C-89.27947252 78.62924505 -90.62793523 77.27743104 -91.9765625 75.92578125 C-92.57108215 75.32609528 -93.16560181 74.7264093 -93.77813721 74.10855103 C-97.47213059 70.41410206 -101.29711037 66.92416655 -105.25582886 63.51466846 C-109.01044263 60.25409676 -112.48399314 56.70046006 -116 53.1875 C-117.16208984 52.0437793 -117.16208984 52.0437793 -118.34765625 50.87695312 C-119.07855469 50.14798828 -119.80945313 49.41902344 -120.5625 48.66796875 C-121.22378906 48.01078857 -121.88507813 47.3536084 -122.56640625 46.67651367 C-124 45 -124 45 -124 43 C-123.38469925 42.99857498 -122.7693985 42.99714996 -122.13545227 42.99568176 C-115.72730007 42.97598484 -109.32010042 42.9217112 -102.91235352 42.84741211 C-100.52147253 42.82422486 -98.1304893 42.80983472 -95.73950195 42.80444336 C-92.3009463 42.79515962 -88.86400056 42.75417832 -85.42578125 42.70703125 C-83.82395744 42.71293022 -83.82395744 42.71293022 -82.18977356 42.71894836 C-76.06475327 42.63181294 -76.06475327 42.63181294 -70.87109375 39.58203125 C-69.34872994 37.48123276 -67.90010299 35.47797232 -66.6875 33.1875 C-66.130625 32.135625 -65.57375 31.08375 -65 30 C-61.17813624 31.27395459 -60.73512772 32.59488659 -58.671875 35.99609375 C-58.03636719 37.03056641 -57.40085937 38.06503906 -56.74609375 39.13085938 C-56.08738281 40.22205078 -55.42867188 41.31324219 -54.75 42.4375 C-52.19079195 46.6404479 -49.61060263 50.82876898 -47 55 C-46.39478516 55.98371582 -45.78957031 56.96743164 -45.16601562 57.98095703 C-44.58013672 58.88571777 -43.99425781 59.79047852 -43.390625 60.72265625 C-42.88047852 61.52582275 -42.37033203 62.32898926 -41.84472656 63.15649414 C-40.04188627 65.22776129 -40.04188627 65.22776129 -37.03808594 66.01733398 C-33.96715516 66.29150681 -33.96715516 66.29150681 -31.82592773 64.44921875 C-29.75825425 61.67573294 -28.27599099 58.93654615 -26.78515625 55.8125 C-26.49283112 55.2053717 -26.20050598 54.59824341 -25.89932251 53.97271729 C-24.9454101 51.98566439 -24.00385677 49.99302762 -23.0625 48 C-22.40204683 46.61787802 -21.74098781 45.2360454 -21.0793457 43.85449219 C-15.97215867 33.16316614 -10.97266889 22.42011561 -6.03735352 11.6484375 C-5.53389404 10.55273438 -5.03043457 9.45703125 -4.51171875 8.328125 C-4.07303467 7.3680957 -3.63435059 6.40806641 -3.18237305 5.41894531 C-2 3 -2 3 0 0 Z " fill="#EC3F79" transform="translate(148,100)"/>
</svg>
